<svg width="170" height="143" viewBox="0 0 170 143" fill="none" xmlns="http://www.w3.org/2000/svg">
<path d="M70.5536 61.056L50.2016 52.9152L70.5536 45.1136V40.3648L44.7744 50.5408V55.6288L70.5536 65.8048V61.056Z" fill="#010101"/>
<path d="M97.0112 24.7616H91.9232L72.928 79.0336H78.016L97.0112 24.7616Z" fill="#010101"/>
<path d="M124.486 50.5408L98.7072 40.3648V45.1136L119.398 52.9152L98.7072 61.056V65.8048L124.486 55.6288V50.5408Z" fill="#010101"/>
<path d="M169.6 0H0V110.24H56.9856L34.9376 142.125H135.341L111.258 110.24H169.939V0H169.6ZM128.218 138.733H41.0432L60.7168 110.24H106.509L128.218 138.733ZM166.208 106.848H108.544H59.36H3.73119V3.392H166.547V106.848H166.208Z" fill="#010101"/>
</svg>
