<svg width="170" height="170" viewBox="0 0 170 170" fill="none" xmlns="http://www.w3.org/2000/svg">
<path d="M51.5584 93.28C37.6512 93.28 26.1184 104.813 26.1184 118.72C26.1184 132.627 37.6512 144.16 51.5584 144.16C65.4656 144.16 76.9984 132.627 76.9984 118.72C76.9984 104.813 65.8048 93.28 51.5584 93.28ZM51.5584 140.768C39.3472 140.768 29.5104 130.931 29.5104 118.72C29.5104 106.509 39.3472 96.672 51.5584 96.672C63.7696 96.672 73.6064 106.509 73.6064 118.72C73.6064 130.931 63.7696 140.768 51.5584 140.768Z" fill="#010101"/>
<path d="M86.1568 97.3504L93.9584 86.8352L82.4256 75.3024L71.5712 83.104C68.5184 81.408 65.1264 80.0512 61.3952 79.0336L59.36 65.8048H43.7568L41.7216 79.0336C38.3296 80.0512 34.9376 81.408 31.5456 83.104L20.6912 75.3024L9.1584 86.8352L16.96 97.3504C14.9248 100.403 13.568 104.134 12.5504 107.866L0 109.901V126.182L12.2112 128.218C13.2288 131.949 14.5856 135.68 16.6208 139.411L9.4976 149.248L21.0304 160.781L30.528 153.658C34.2592 156.032 37.9904 157.389 42.0608 158.406L43.7568 169.6H60.0384L61.7344 158.067C65.8048 157.05 69.536 155.354 73.2672 153.318L82.7648 160.442L94.2976 148.909L87.1744 139.072C89.2096 135.68 90.5664 131.949 91.584 127.878L103.795 125.843V109.562L91.2448 107.526C89.888 104.134 88.192 100.742 86.1568 97.3504ZM100.064 123.13L88.5312 124.826L88.192 125.843C87.1744 130.253 85.8176 134.323 83.4432 138.054L82.7648 139.072L89.5488 148.23L82.0864 155.693L72.928 148.909L71.9104 149.587C68.1792 151.962 63.7696 153.997 59.36 155.014L58.3424 155.354L56.6464 166.547H46.4704L44.7744 155.354L43.7568 155.014C39.3472 153.997 34.9376 152.301 31.2064 149.587L30.1888 148.909L21.0304 155.693L13.568 148.23L20.352 139.072L19.6736 138.054C17.2992 134.323 15.6032 130.253 14.9248 125.843L14.5856 124.826L3.0528 123.13V112.954L15.264 111.258L15.6032 110.24C16.6208 106.17 18.3168 102.438 20.6912 98.7072L21.3696 97.6896L13.9072 87.5136L21.3696 80.0512L31.5456 87.5136L32.5632 86.8352C35.9552 84.8 39.6864 83.104 43.7568 82.4256L44.7744 82.0864L46.8096 69.536H56.9856L59.0208 82.0864L60.0384 82.4256C64.1088 83.4432 67.84 84.8 71.232 86.8352L72.2496 87.5136L82.4256 80.0512L89.888 87.5136L82.4256 97.6896L83.104 98.7072C85.4784 102.099 87.1744 106.17 88.192 110.24L88.5312 111.258L100.742 112.954V123.13H100.064Z" fill="#010101"/>
<path d="M133.645 65.8048C128.896 65.8048 124.486 67.84 121.094 71.232C117.702 74.624 116.006 79.0336 116.006 83.7824C116.006 88.5312 118.042 92.9408 121.434 96.3328C124.826 99.7248 129.235 101.421 133.984 101.421C138.733 101.421 143.142 99.3856 146.534 95.9936C149.926 92.6016 151.622 88.192 151.622 83.4432C151.622 78.6944 149.587 74.2848 146.195 70.8928C143.142 67.84 138.394 65.8048 133.645 65.8048ZM144.16 93.9584C141.446 96.672 137.715 98.368 133.984 98.368C130.253 98.368 126.522 97.0112 123.808 94.2976C121.094 91.584 119.398 87.8528 119.398 84.1216C119.398 80.3904 120.755 76.6592 123.469 73.9456C126.182 71.232 129.914 69.536 133.645 69.536C137.376 69.536 141.107 70.8928 143.821 73.6064C146.534 76.32 148.23 80.0512 148.23 83.7824C148.23 87.5136 146.874 91.2448 144.16 93.9584Z" fill="#010101"/>
<path d="M161.12 90.5664L169.939 89.2096V77.3376L160.781 75.9808C160.102 73.9456 159.424 71.5712 158.067 69.8752L163.494 62.4128L155.014 53.9328L147.552 59.36C145.517 58.3424 143.482 57.3248 141.446 56.6464L140.09 47.488H128.218L126.861 56.3072C124.486 56.9856 122.451 57.664 120.077 59.0208L112.954 53.9328L104.474 62.4128L109.562 69.1968C108.205 71.232 107.187 73.6064 106.509 76.32L98.368 77.6768V89.5488L106.509 90.9056C107.187 93.6192 108.205 95.9936 109.562 98.368L104.813 104.813L113.293 113.293L119.738 108.544C122.112 109.901 124.486 110.918 127.2 111.597L128.557 119.738H140.429L141.786 111.258C144.16 110.579 146.534 109.562 148.909 108.205L155.693 113.293L164.173 104.813L158.746 97.6896C159.424 95.3152 160.442 92.9408 161.12 90.5664ZM159.085 104.134L154.675 108.544L148.23 103.795L147.213 104.474C144.838 106.17 142.125 107.187 139.072 107.866L138.054 108.205L137.037 116.006H130.931L129.914 108.544L128.896 108.205C125.843 107.526 123.13 106.509 120.416 104.813L119.398 104.134L113.293 108.544L108.883 104.134L113.293 98.0288L112.614 97.0112C110.918 94.2976 109.901 91.584 109.222 88.5312L108.883 87.5136L101.421 86.496V80.3904L109.222 79.3728L109.562 78.3552C110.24 75.3024 111.258 72.5888 112.954 70.2144L113.632 69.1968L108.883 62.752L113.293 58.3424L119.738 63.0912L120.755 62.4128C123.13 61.056 125.843 60.0384 128.557 59.36L129.574 59.0208L130.931 50.88H137.037L138.394 59.36L139.411 59.6992C142.125 60.3776 144.499 61.3952 146.874 62.752L147.891 63.4304L154.675 58.3424L159.085 62.752L153.997 69.8752L154.675 70.8928C156.032 73.2672 157.05 75.6416 157.728 78.3552L158.067 79.3728L166.547 80.7296V86.8352L158.406 88.192L158.067 89.2096C157.389 91.9232 156.371 94.6368 155.014 97.0112L154.336 98.0288L159.085 104.134Z" fill="#010101"/>
<path d="M43.7568 28.4928V40.0256L51.5584 41.0432C52.2368 43.4176 53.2544 45.792 54.272 47.8272L49.8624 53.9328L58.0032 62.0736L64.1088 57.664C66.144 59.0208 68.5184 59.6992 70.8928 60.3776L72.2496 68.1792H83.7824L84.8 60.3776C87.1744 59.6992 89.2096 58.6816 91.2448 57.664L97.6896 62.4128L105.83 54.272L100.742 47.488C101.76 45.4528 102.778 43.4176 103.117 41.3824L111.597 40.0256V28.4928L102.778 27.136C102.099 25.1008 101.421 23.0656 100.403 21.3696L105.491 14.2464L97.3504 6.10561L90.2272 11.1936C88.5312 10.176 86.496 9.15842 84.4608 8.81922L83.104 0H71.5712L70.2144 8.48C68.1792 9.1584 66.144 9.83679 64.1088 10.8544L57.3248 5.76639L49.184 13.9072L53.9328 20.352C52.576 22.3872 51.8976 24.4224 51.2192 26.7968L43.7568 28.4928ZM54.6112 29.1712C55.2896 26.4576 56.3072 23.744 58.0032 21.7088L58.6816 20.6912L54.272 14.5856L58.3424 10.5152L64.448 14.9248L65.4656 14.2464C67.84 12.8896 70.2144 11.872 72.5888 11.1936L73.6064 10.8544L74.624 3.05278H80.3904L81.7472 11.1936L82.7648 11.5328C85.1392 12.2112 87.5136 13.2288 89.888 14.5856L90.9056 15.264L97.3504 10.5152L101.421 14.5856L96.672 21.0304L97.3504 22.048C98.7072 24.0832 99.7248 26.4576 100.403 29.1712L100.742 30.1888L108.883 31.5456V37.312L101.082 38.6688L100.742 39.6864C100.064 42.4 99.3856 44.7744 98.0288 47.1488L97.3504 48.1664L102.099 54.272L98.0288 58.3424L91.9232 53.9328L90.9056 54.6112C88.5312 56.3072 86.1568 57.3248 83.4432 58.0032L82.4256 58.3424L81.408 65.4656H75.6416L74.624 58.3424L73.6064 58.0032C70.8928 57.3248 68.1792 56.3072 65.8048 54.9504L64.7872 54.272L59.0208 58.3424L54.9504 54.272L59.0208 48.5056L58.3424 47.488C56.6464 45.1136 55.6288 42.4 54.9504 39.6864L54.6112 38.6688L47.488 37.6512V31.8848L54.6112 30.8672V29.1712Z" fill="#010101"/>
<path d="M77.3376 51.5584C77.6768 51.5584 77.6768 51.5584 77.3376 51.5584C82.0864 51.5584 86.1568 49.8624 89.5488 46.4704C96.3328 39.6864 95.9936 28.832 89.5488 22.3872C86.1568 19.3344 82.0864 17.2992 77.6768 17.2992C73.2672 17.2992 68.8576 18.9952 65.4656 22.3872C58.6816 29.1712 59.0208 40.0256 65.4656 46.4704C68.5184 49.8624 72.928 51.5584 77.3376 51.5584ZM67.84 24.7616C70.5536 22.048 73.9456 20.6912 77.6768 20.6912C81.408 20.6912 84.8 22.048 87.1744 24.7616C92.6016 30.1888 92.6016 38.6688 87.1744 44.096C84.4608 46.8096 81.0688 48.1664 77.3376 48.1664C73.6064 48.1664 70.2144 46.8096 67.5008 44.096C62.4128 39.008 62.4128 30.1888 67.84 24.7616Z" fill="#010101"/>
</svg>
