<svg width="95" height="169" viewBox="0 0 95 169" fill="none" xmlns="http://www.w3.org/2000/svg">
<path d="M87.8528 0H6.44483C2.71363 0 0 3.05288 0 6.44488V162.477C0 166.208 3.05283 168.922 6.44483 168.922H87.8528C91.584 168.922 94.2976 165.869 94.2976 162.477V6.44488C94.2976 3.05288 91.584 0 87.8528 0ZM90.9056 162.816C90.9056 164.512 89.5488 165.869 87.8528 165.869H6.44483C4.74883 165.869 3.392 164.512 3.392 162.816V6.784C3.392 5.088 4.74883 3.73112 6.44483 3.73112H87.8528C89.5488 3.73112 90.9056 5.088 90.9056 6.784V162.816Z" fill="#231F20"/>
<path d="M8.14087 161.798H86.1569V15.9424H8.14087V161.798ZM11.5329 18.9951H82.7649V158.067H11.5329V18.9951Z" fill="#231F20"/>
<path d="M47.1488 13.568C48.5056 13.568 49.8623 12.5504 49.8623 10.8544C49.8623 9.15844 48.8448 8.14088 47.1488 8.14088C45.4528 8.14088 44.4352 9.15844 44.4352 10.8544C44.4352 12.5504 45.792 13.568 47.1488 13.568Z" fill="#231F20"/>
</svg>
